<?xml version="1.0" encoding="utf-8"?>
<!-- Generator: Adobe Illustrator 16.0.0, SVG Export Plug-In . SVG Version: 6.00 Build 0)  -->
<!DOCTYPE svg PUBLIC "-//W3C//DTD SVG 1.1//EN" "http://www.w3.org/Graphics/SVG/1.1/DTD/svg11.dtd">
<svg version="1.1" id="Layer_1" xmlns="http://www.w3.org/2000/svg" xmlns:xlink="http://www.w3.org/1999/xlink" x="0px" y="0px"
	 width="240px" height="59px" viewBox="0 0 240 59" enable-background="new 0 0 240 59" xml:space="preserve">
<g>
	<g>
		<path fill-rule="evenodd" clip-rule="evenodd" fill="#2D4875" d="M133.152,10.661c-0.264-0.602,6.35-3.988,9.867-5.228
			c0.516-0.182,1.211-0.411,1.512,0.259c0.271,0.604-0.203,1.163-0.672,1.465C140.607,9.25,133.418,11.262,133.152,10.661z"/>
		<path fill-rule="evenodd" clip-rule="evenodd" fill="#2D4875" d="M182.578,11.326l0.003-0.001c0,0-0.43-0.792-0.545-1.07
			c-0.213-0.521-0.377-1.03-0.406-1.151c-0.334-1.647-0.541-3.173-1.848-3.659c-2.536-0.944-3.767,2.123-5.414,3.639
			c-0.362,0.333-0.872,0.598-1.188,1.02c0,0.001-0.002,0.002-0.003,0.004c-0.053,0.072-0.097,0.151-0.138,0.231
			c-0.014,0.03-0.026,0.059-0.039,0.092c-0.021,0.052-0.035,0.107-0.051,0.165c-0.053,0.268,0.047,0.547,0.651,0.582
			c0.046,0.001,0.091,0.006,0.135,0.006c0.064,0,0.137-0.005,0.211-0.01c1.798-0.116,2.949-1.657,4.525-2.8
			c0.038-0.014,0.177-0.051,0.243,0.158l0.003-0.005c0.33,1.1,0.845,2.022,1.872,2.575l-0.001,0.001
			c0.063,0.033,0.117,0.056,0.177,0.085c0.032,0.017,0.063,0.033,0.098,0.048c1.076,0.577,1.51,0.623,1.671,0.509l0,0
			c0,0,0-0.001,0.001-0.001c0.018-0.012,0.032-0.026,0.044-0.042C182.69,11.591,182.64,11.439,182.578,11.326z"/>
		<path fill-rule="evenodd" clip-rule="evenodd" fill="#2D4875" d="M239.54,27.396L239.54,27.396
			c-0.664,0.798-1.249,1.504-1.834,2.2c-2.019,2.403-4.19,4.627-7.255,5.674c-1.572,0.537-3.208,0.944-4.607,0.162
			c-2.938-1.7-2.071-6.198-1.754-7.482c0.032-0.12,0.063-0.239,0.096-0.357c0.205-0.761,0.683-0.602,1.342-0.38
			c2.568,0.863,4.615,1.063,6.358,0.554v0.009c0.023-0.009,0.044-0.019,0.066-0.028c0.656-0.199,1.268-0.501,1.846-0.907
			c4.384-2.71,4.419-7.402,4.419-7.402l-0.004,0.001c0.013-0.284,0.01-0.561-0.022-0.83c-0.355-4.704-4.798-5.203-5.83-5.256
			c-0.038-0.001-0.076-0.002-0.114-0.004c-0.063-0.002-0.103-0.002-0.103-0.002l0.001,0.002c-0.087,0-0.175,0.006-0.262,0.009l0,0
			c0,0-0.019,0-0.048,0.002c-0.382,0.019-0.771,0.082-1.172,0.189c-2.067,0.484-6.315,2.188-9.158,8.169
			c-0.719,1.317-1.293,2.735-1.733,4.244h-0.001c0,0-0.851,3.005-2.12,5.476c-2.858,5.359-6.032,4.199-6.455,4.015
			c-0.957-0.612-1.153-1.615-1.056-2.688c0.135-1.487,0.76-2.801,1.52-4.058c1.408-2.328,2.832-4.646,4.223-6.983
			c0.147-0.247,0.28-0.499,0.406-0.752v0.004c2.439-4.102,0.773-5.842-0.047-6.397c-0.216-0.157-0.381-0.214-0.381-0.214v0.001
			c-0.634-0.29-1.504-0.215-2.631,0.218c-2.46,0.946-4.317,2.864-6.601,4.232c-0.578-5.617-2.331-6.43-6.886-3.266
			c-1.594,1.107-3.061,2.397-4.746,3.73c0.142-1.166,0.293-2.024,0.337-2.886c0.05-0.995-0.058-2.19-0.96-2.595
			c-0.792-0.355-1.165,0.084-1.459,0.633v-0.001c0,0-0.873,1.378-1.885,2.716c-1.66,2.083-3.451,4.018-5.937,5.246
			c-1.639,0.811-2.471,0.948-2.553-1.497c-0.142-4.17-3.074-6.875-6.497-7.001l0,0c-4.915-0.479-8.642,4.914-9.965,7.146
			c-0.023,0.04-0.047,0.08-0.071,0.121c-0.191,0.329-0.324,0.577-0.395,0.711c-0.002,0.002-0.003,0.005-0.005,0.007
			c-0.034,0.067-0.052,0.104-0.052,0.104l0.001,0.001c-0.792,1.528-1.39,3.183-1.8,4.947c-0.755,3.25-2.582,5.754-5.047,7.837
			c-0.879,0.656-2.333,1.379-3.663,0.358c-0.694-0.666-0.738-1.622-0.711-2.56c0.071-2.432,1.119-4.532,2.485-6.438
			c1.523-2.129,3.214-4.14,4.859-6.179c1.633-2.021,0.804-3.836-0.476-5.558c-0.754-1.014-1.395-0.893-1.998-0.506
			c0,0.001-0.001,0.001-0.001,0.001c-0.02,0.012-0.038,0.023-0.057,0.037c-2.932,1.938-5.391,2.541-5.76,2.624
			c-0.173,0.021-0.345,0.041-0.526,0.046c0.376-1.817,0.828-3.486,1.034-5.186c0.142-1.17-0.229-2.208-1.826-1.734
			c-3.287,0.975-5.516,6.282-3.783,9.165c0.352,0.583,0.449,0.964,0.143,1.551c-2.943,5.649-6.139,11.102-11.988,14.281
			c-1.811,0.984-3.854,1.729-5.801,0.421c-0.18-0.119-0.346-0.249-0.494-0.392c-0.01-0.007-0.018-0.016-0.027-0.024
			c-1.963-1.93-1.031-5.695-0.561-7.172c0.014-0.039,0.033-0.104,0.064-0.199c0.006-0.019,0.014-0.036,0.02-0.054
			c0.111-0.329,0.547-0.231,0.547-0.231l0.002-0.002c2.061,0.771,3.865,1.085,5.451,0.912v0.001c0.01-0.001,0.02-0.004,0.031-0.006
			c0.686-0.078,1.328-0.255,1.938-0.516c4.346-1.627,5.352-5.635,5.574-7.715c0.047-0.261,0.076-0.522,0.08-0.782l0,0
			c0,0,0.203-3.13-2.283-4.669c-2.467-1.623-5.303-0.613-5.303-0.613v0.004c-0.547,0.16-1.115,0.394-1.717,0.719
			c-4.313,2.325-7.059,6.057-8.727,10.548c-1.389,3.742-1.588,7.493,1.627,10.542c2.559,2.426,6.92,2.548,10.961,0.493
			c1.658-0.843,3.125-1.955,4.471-3.237c0.041-0.041,0.082-0.083,0.127-0.124c1.965-2.03,3.699-4.534,3.781-4.651
			c0.92-1.379,2.002-3.049,2.814-4.464c0.125-0.249,0.258-0.484,0.396-0.709c0.01-0.021,0.023-0.045,0.035-0.066l0.002,0.005
			c1.799-2.882,4.618-3.874,8.124-4.305c-0.744,0.915-1.428,1.725-2.076,2.561c-2.155,2.775-4.218,5.625-4.843,9.187
			c-0.426,2.422-0.068,4.718,2.109,6.261c2.109,1.497,4.38,1.351,6.644,0.297c1.778-0.829,3.104-2.21,4.286-3.773
			c2.406,3.074,4.849,4.546,7.31,4.461c0.226-0.01,0.447-0.031,0.667-0.062c0.117-0.018,0.234-0.032,0.352-0.057
			c0.094-0.019,0.187-0.043,0.278-0.065c1.651-0.425,3.309-1.547,4.966-3.372c2.575-3.023,3.899-6.87,3.899-6.87h0.003
			c1.072-2.627,3.501-2.827,6.146-3.18c-1.565,3.434-3.608,6.476-3.981,10.152c-0.135,1.325,0.118,2.85,1.418,3.23
			c1.399,0.408,1.398-1.317,1.795-2.158c1.915-4.052,4.038-7.945,6.847-11.329l-0.003-0.005c2.909-4.165,5.888-5.7,6.944-6.143
			c0.067-0.03,0.137-0.057,0.207-0.083c0.126-0.047,0.197-0.069,0.197-0.069v0.008c0.379-0.113,0.798-0.171,1.289-0.121
			c0.11,0.046,0.223,0.203-0.101,0.734c-1.967,3.204-3.832,6.196-5.63,9.216c-1.403,2.355-2.547,4.833-2.52,7.655
			c0.012,1.181,0.234,2.615,1.491,2.881c1.172,0.249,1.29-1.247,1.674-2.049c2.919-6.115,6.52-11.717,11.79-16.101
			c1.073-0.893,2.158-1.787,3.725-2.346c0,0,0.008-0.002,0.01-0.003c0.012-0.004,0.024-0.007,0.036-0.011
			c0.121-0.036,0.446-0.108,0.531,0.1c0.002,0.002,0.308,0.282-0.584,1.641v-0.001c-0.348,0.611-0.75,1.126-1.095,1.663
			c-1.785,2.779-3.743,5.459-5.001,8.537c-0.961,2.351-1.414,4.81,0.617,6.803c2.11,2.07,4.705,2.009,7.345,1.03
			c2.054-0.763,3.512-2.31,5.016-3.802c0.145-0.077,0.353-0.08,0.598,0.223l0.005-0.008c3.425,4.427,7.635,5.299,13.185,2.766
			c0.669-0.306,1.296-0.639,1.88-0.995c4.294-2.8,4.986-6.368,5.099-7.459c0.008-0.071,0.015-0.14,0.019-0.2
			c0-0.017,0.002-0.034,0.002-0.049C240.169,26.391,239.54,27.396,239.54,27.396z M225.864,23.573
			c0.833-1.673,2.854-4.935,6.731-7.099c0.045-0.027,0.092-0.055,0.138-0.082c0.581-0.282,1.37-0.521,1.859-0.072
			c0.043,0.036,0.08,0.073,0.114,0.111c0.086,0.11,0.187,0.321,0.186,0.677l0.003-0.001c0,0,0.286,2.466-3.564,6.39
			c-0.019,0.02-0.038,0.039-0.059,0.06c-0.035,0.036-0.065,0.07-0.102,0.106l0.002-0.011c-0.403,0.409-0.835,0.786-1.311,1.116
			l0.001,0.001c0,0-2.981,2.339-4.268,0.786C225.223,25.033,225.722,23.875,225.864,23.573z M130.807,23.836
			c1.609-2.815,3.559-5.336,6.326-7.103c0.143-0.092,0.295-0.196,0.449-0.298c0.336-0.208,1.064-0.596,1.621-0.414
			c0.104,0.041,0.207,0.099,0.309,0.179c0.006,0.004,0.008,0.007,0.014,0.012c0.008,0.007,0.025,0.026,0.041,0.043
			c0.074,0.089,0.203,0.313,0.201,0.778h0.002l-0.002,0.007c-0.002,0.213-0.031,0.476-0.105,0.801
			c-0.168,0.933-0.613,2.547-1.738,4.143v0.001c-0.055,0.078-0.109,0.151-0.164,0.227c-0.023,0.031-0.045,0.063-0.068,0.095
			c-3.322,4.5-6.539,3.292-6.561,3.283C130.502,25.402,130.15,24.982,130.807,23.836z M177.252,26.365
			c-0.225,0.439-0.454,0.876-0.686,1.31l0.003,0.001c0,0-4.653,9.396-8.427,7.142c-0.177-0.098-0.327-0.206-0.46-0.323v0.001
			c-0.002-0.001-0.002-0.002-0.004-0.003c-0.236-0.208-0.412-0.445-0.536-0.702c-1.46-2.771,1.56-8.438,1.56-8.438l0.004,0.001
			c1.237-2.613,3.054-4.971,5.439-7.164c0.528,1.762,1.029,3.219,2.282,4.034C178.235,23.397,178.104,24.696,177.252,26.365z
			 M178.924,21.711c-0.259,0.876-1.068-0.63-1.068-0.63l0.003-0.003c-0.727-1.137-0.915-2.366-0.33-3.671
			c0.104-0.235,0.344-0.515,0.616-0.513c0.619-0.059,0.979,1.03,0.979,1.03l0,0C179.402,18.593,179.587,19.786,178.924,21.711z"/>
		<path fill-rule="evenodd" clip-rule="evenodd" fill="#2D4875" d="M130.455,2.103c-0.129-0.75-0.262-1.688-1.086-1.932
			c-1.002-0.296-1.264,0.738-1.602,1.353c-2.209,3.993-4.355,8.02-6.533,12.03c-3.006,5.541-5.412,11.407-8.922,16.677
			c-1.351,2.028-2.815,3.989-5.118,5.05c-2.911,1.341-5.295,0.014-5.688-3.158c-0.126-1.021-0.066-2.023,0.083-3.016
			c0.236-1.384,1.242-4.447,1.242-4.447l0,0c0.194-0.522,0.2-1.014-0.501-1.348c-1.121-0.533-2.19,0.592-2.897,1.501
			c-1.997,2.57-2.536,5.485-1.266,8.498c1.443,3.426,4.432,4.376,7.873,4.392c5.613-0.04,9.133-3.396,11.859-7.756
			c4.484-7.171,8.224-14.744,11.683-22.456C130.348,5.782,130.777,3.986,130.455,2.103z"/>
	</g>
	<g>
		
			<ellipse transform="matrix(0.9488 -0.3159 0.3159 0.9488 -1.4348 13.6016)" fill-rule="evenodd" clip-rule="evenodd" fill="#2D4875" cx="41.23" cy="11.226" rx="2.333" ry="2.925"/>
		<path fill-rule="evenodd" clip-rule="evenodd" fill="#2D4875" d="M94.013,28.01c-0.214-0.747-0.703-0.084-0.703-0.084
			l-0.001-0.002c-3.111,3.626-6.28,6.62-10.654,8.246c2.547-5.008,5.079-10.024,7.65-15.02c0.814-1.583,1.478-3.19,1.278-5.003
			c-0.094-0.854-0.165-1.924-1.097-2.237c-1.114-0.373-1.453,0.78-1.854,1.462c-2.117,3.603-4.126,7.266-6.241,10.871
			c-0.794,1.353-1.598,2.706-2.477,4.001l0.002,0.005c-0.277,0.452-0.549,0.856-0.821,1.239H79.1
			c-3.784,6.093-6.23,4.268-6.23,4.268c-0.013-0.006-0.024-0.014-0.037-0.021c-0.078-0.048-0.148-0.1-0.213-0.152
			c-0.665-0.584-0.554-1.824-0.276-2.92c0.042-0.127,0.085-0.257,0.124-0.38c1.193-3.742,3.293-7.022,5.346-10.326
			c1.085-1.746,2.085-3.536,1.825-5.715c-0.106-0.896-0.364-1.838-1.214-2.2c-1.129-0.479-1.459,0.686-1.914,1.328
			c-3.156,4.458-5.874,9.163-7.688,14.343c-1.07,3.061-3.355,4.969-6.159,6.24c-1.35,0.612-2.459,0.434-3.034-0.377l0,0
			c-0.108-0.152-0.196-0.325-0.264-0.52c-1.212-2.92,1.118-7.691,1.118-7.691l0.003,0.004c0.613-1.365,1.544-2.616,3.015-3.684
			c5.189-3.768,9.267-8.579,11.54-14.706c0.208-0.56,0.402-1.123,0.562-1.692l0.004,0.005c1-3.087-0.047-5.025-0.783-5.926
			c-0.178-0.24-0.369-0.432-0.57-0.578c-0.01-0.007-0.021-0.016-0.021-0.016L74.23,0.772c-0.961-0.673-2.184-0.279-3.583,1.247
			c-6.667,7.27-11.632,15.524-14.349,25.069c-1.129,3.962-3.836,6.719-7.313,8.678c-1.323,0.744-2.492,0.751-3.185,0.159h0
			c-0.002-0.001-0.004-0.004-0.006-0.006c-0.021-0.017-0.04-0.037-0.06-0.057c-1.663-1.352-0.022-6.837-0.022-6.837l0.003-0.001
			c0.527-1.956,1.538-3.748,3.509-5.203c5.165-3.812,9.267-8.577,11.635-14.649c0.671-1.723,1.226-3.507,0.841-5.401
			c-0.294-1.447-0.945-2.789-2.34-3.324c-1.014-0.334-2.218,0.868-2.663,1.367c-0.083,0.103-0.166,0.201-0.25,0.292
			c-6.481,7.038-11.332,15.048-14.05,24.258c-0.88,2.979-2.387,5.525-4.545,7.684c-0.435,0.435-0.905,0.929-1.408,1.351
			c-1.757,1.318-3.199,0.659-3.465,0.516c-1.782-1.244-0.54-3.343,0.162-4.85c1.514-3.254,3.328-6.368,5.019-9.538
			c0.991-1.859,1.575-3.805,0.878-5.881c-0.323-0.962-1.079-2.052-2.023-0.664c-3.72,5.467-7.506,10.974-8.595,17.673
			c-0.594,3.659,1.995,5.896,5.708,5.397c2.953-0.397,5.17-2.095,7.131-4.222c3.278,5.645,7.152,5.652,14.176,0.097
			c2.626,4.403,6.189,5.315,10.703,2.503c1.435-0.894,2.117-1.161,3.359,0.406c1.342,1.695,3.511,1.42,5.399,0.599
			c1.094-0.474,2.086-1.185,3.221-1.845c-0.351,2.386-1.574,3.701-3.706,4.481c-2.379,0.87-4.498,2.299-6.405,3.99
			c-2.472,2.191-4.327,4.8-4.734,8.14c-0.234,1.918,0.2,3.737,1.305,5.098c0.632,0.736,1.295,1.138,1.929,1.342
			c0.111,0.039,0.223,0.069,0.335,0.094c0.073,0.016,0.146,0.028,0.217,0.039c1.86,0.26,3.698-1.312,4.462-2.073
			c2.296-2.366,4.359-5.835,5.124-7.192c1.291-2.354,2.404-4.804,3.433-7.288c0.8-1.93,1.892-3.158,3.869-3.957
			c2.646-1.069,5.152-2.412,7.175-4.396c0.005-0.005,0.01-0.01,0.015-0.014c0.291-0.286,0.566-0.592,0.835-0.905
			c0.075-0.089,0.156-0.179,0.226-0.268c0.087-0.106,0.165-0.222,0.25-0.331c1.52-2.059,1.607-3.664,1.603-4.037
			C94.038,28.213,94.033,28.115,94.013,28.01z M63.797,19.938c2.641-4.431,5.092-8.947,8.718-13.233V6.7c0,0,0.36-0.521,0.64-0.441
			c0,0,0.002-0.001,0.002-0.001c0.03,0.009,0.06,0.019,0.086,0.043l0,0c0.062,0.067,0.086,0.218,0.036,0.513
			c-1.104,5.322-5.759,12.092-9.116,13.652c-0.781,0.232-0.365-0.526-0.365-0.526S63.798,19.938,63.797,19.938z M50.304,19.632
			c2.207-4.436,4.576-8.768,8.001-12.376c0.09-0.089,0.23-0.214,0.358-0.273c0.002,0,0.003-0.001,0.005-0.001
			c0.001-0.001,0.002-0.001,0.003-0.001c0.175-0.061,0.375-0.041,0.24,0.463c-1.346,5.168-4.271,9.281-8.289,12.668
			C49.888,20.689,50.269,19.718,50.304,19.632z M74.912,42.943c-0.945,2.155-1.935,4.282-3.147,6.272l0.002,0.001
			c0,0-3.112,5.177-4.772,5.938c-0.548,0.22-0.625-0.165-0.636-0.286c-0.025-0.425-0.039-1.543,0.361-2.857h0
			c0.386-1.46,1.178-3.266,2.779-5.054l0.003,0.003c1.324-1.625,2.991-3.031,4.867-4.303C74.483,42.585,75.289,42.083,74.912,42.943
			z"/>
		<path fill-rule="evenodd" clip-rule="evenodd" fill="#2D4875" d="M34.229,5.388L34.229,5.388
			c-0.864-2.716-3.688-4.316-3.688-4.316l0.003,0.014c-0.293-0.201-0.597-0.37-0.9-0.496c-0.021-0.01-0.036-0.016-0.036-0.016
			l0.002,0.002c-0.62-0.251-1.225-0.369-1.675-0.419c-0.034-0.005-0.068-0.007-0.102-0.011C27.436,0.11,27.177,0.12,27.177,0.12
			l0.001,0.008c-2.673,0.074-6.166,2.012-8.668,3.659c-1.037,0.635-2.017,1.339-2.943,2.108c-0.154,0.121-0.239,0.19-0.239,0.19
			v0.012c-2.685,2.293-4.879,5.179-6.469,8.762c-1.641,3.698-0.765,7.01,2.297,9.737c2.416,2.153,5.268,3.64,7.945,5.398
			c1.167,0.767,2.953,1.357,2.649,3.051c-0.401,2.032-2.875,2.325-3.542,2.367c-0.317,0.015-0.635,0.021-0.948,0.027
			c-1.804,0.035-3.48-0.526-5.001-1.394c-1.851-1.055-3.622-2.262-5.372-3.483c-1.575-1.098-3.257-1.719-5.187-1.549
			c-1.333,0.118-2.229,0.536-0.974,1.934c3.981,4.432,8.7,7.423,14.699,7.519c4.12-0.095,7.438-1.335,9.452-4.979
			c1.464-2.648,1.07-4.231-1.508-5.879c-2.455-1.569-5.056-2.926-7.414-4.625c-3.417-2.462-3.865-4.693-1.565-8.234
			c3.281-5.054,7.976-8.424,13.578-10.55c0.809-0.307,1.744-0.627,2.454,0.142c0.743,0.807,0.214,1.698-0.209,2.421
			c-1.229,2.091-2.607,4.097-3.821,6.197c-1.069,1.848-1.585,3.798-0.162,5.74c0.58,0.79,1.234,1.34,1.989,0.135
			c1.803-2.88,3.749-5.679,5.382-8.651c0.049-0.089,0.083-0.177,0.125-0.265l0.005,0.01C35.121,7.502,34.229,5.388,34.229,5.388z"/>
	</g>
</g>
</svg>
