<?xml version="1.0" encoding="utf-8"?>
<!-- Generator: Adobe Illustrator 16.0.0, SVG Export Plug-In . SVG Version: 6.00 Build 0)  -->
<!DOCTYPE svg PUBLIC "-//W3C//DTD SVG 1.1//EN" "http://www.w3.org/Graphics/SVG/1.1/DTD/svg11.dtd">
<svg version="1.1" xmlns="http://www.w3.org/2000/svg" xmlns:xlink="http://www.w3.org/1999/xlink" x="0px" y="0px"
	 width="32.011px" height="26.036px" viewBox="0 0 32.011 26.036" enable-background="new 0 0 32.011 26.036" xml:space="preserve">
<g id="Layer_1" display="none">
	<rect display="inline" fill="#00327A" width="100" height="100"/>
</g>
<g id="Layer_2">
	<g>
		<path fill="#DEDEDE" d="M28.779,2.443c-0.402,0.296-0.822,0.628-1.26,0.996c-0.441,0.371-0.879,0.774-1.317,1.219
			c-0.438,0.442-0.84,0.924-1.204,1.438c-0.438,0.594-1.023,1.771-1.754,3.547c-0.731,1.771-1.095,3.287-1.095,4.54
			c1.239-0.735,2.482-1.067,3.725-0.996c1.242,0.074,2.338,0.442,3.287,1.108c0.728,0.664,1.388,1.438,1.974,2.325
			c0.586,0.885,0.876,1.957,0.876,3.21c0,1.847-0.675,3.344-2.027,4.488c-1.352,1.146-2.831,1.716-4.438,1.716
			c-1.826,0-3.326-0.46-4.491-1.384c-1.169-0.923-1.977-2.344-2.414-4.266c-0.438-1.4-0.456-3.451-0.054-6.146
			c0.399-2.695,1.225-5.038,2.468-7.035c1.095-1.844,2.373-3.376,3.834-4.594c1.459-1.219,2.85-2.05,4.163-2.494
			c0.802-0.221,1.278-0.129,1.423,0.277C30.62,0.8,30.4,1.225,29.817,1.667C29.525,1.889,29.179,2.148,28.779,2.443z"/>
		<path fill="#DEDEDE" d="M10.481,2.443c-0.402,0.296-0.822,0.628-1.26,0.996C8.78,3.811,8.343,4.214,7.904,4.658
			C7.467,5.101,7.064,5.582,6.7,6.097C6.263,6.69,5.677,7.868,4.946,9.644c-0.731,1.771-1.095,3.287-1.095,4.54
			c1.239-0.735,2.482-1.067,3.725-0.996c1.242,0.074,2.338,0.442,3.287,1.108c0.728,0.664,1.388,1.438,1.974,2.325
			c0.586,0.885,0.876,1.957,0.876,3.21c0,1.847-0.675,3.344-2.027,4.488c-1.352,1.146-2.831,1.716-4.438,1.716
			c-1.826,0-3.326-0.46-4.491-1.384c-1.169-0.923-1.977-2.344-2.414-4.266c-0.438-1.4-0.456-3.451-0.054-6.146
			c0.399-2.695,1.225-5.038,2.468-7.035C3.852,5.36,5.13,3.828,6.591,2.61c1.459-1.219,2.85-2.05,4.163-2.494
			c0.802-0.221,1.278-0.129,1.423,0.277c0.146,0.406-0.074,0.831-0.657,1.273C11.228,1.889,10.881,2.148,10.481,2.443z"/>
	</g>
</g>
</svg>
