<?xml version="1.0" encoding="utf-8"?>
<!-- Generator: Adobe Illustrator 16.0.0, SVG Export Plug-In . SVG Version: 6.00 Build 0)  -->
<!DOCTYPE svg PUBLIC "-//W3C//DTD SVG 1.1//EN" "http://www.w3.org/Graphics/SVG/1.1/DTD/svg11.dtd">
<svg version="1.1" xmlns="http://www.w3.org/2000/svg" xmlns:xlink="http://www.w3.org/1999/xlink" x="0px" y="0px"
	 width="32.011px" height="26.036px" viewBox="0 0 32.011 26.036" enable-background="new 0 0 32.011 26.036" xml:space="preserve">
<g id="Layer_1" display="none">
	<rect display="inline" fill="#00327A" width="100" height="100"/>
</g>
<g id="Layer_2">
	<g>
		<path fill="#DEDEDE" d="M3.231,23.592c0.402-0.296,0.822-0.628,1.26-0.996c0.441-0.371,0.879-0.774,1.317-1.219
			c0.438-0.442,0.84-0.924,1.204-1.438c0.438-0.594,1.023-1.771,1.754-3.547c0.731-1.771,1.095-3.287,1.095-4.54
			c-1.239,0.735-2.482,1.067-3.725,0.996c-1.242-0.074-2.338-0.442-3.287-1.108c-0.728-0.664-1.388-1.438-1.974-2.325
			C0.29,8.529,0,7.457,0,6.204C0,4.357,0.675,2.86,2.027,1.716C3.379,0.57,4.858,0,6.465,0c1.826,0,3.326,0.46,4.491,1.384
			c1.169,0.923,1.977,2.344,2.414,4.266c0.438,1.4,0.456,3.451,0.054,6.146c-0.399,2.695-1.225,5.038-2.468,7.035
			c-1.095,1.844-2.373,3.376-3.834,4.594c-1.459,1.219-2.85,2.05-4.163,2.494c-0.802,0.221-1.278,0.129-1.423-0.277
			c-0.146-0.406,0.074-0.831,0.657-1.273C2.485,24.146,2.832,23.887,3.231,23.592z"/>
		<path fill="#DEDEDE" d="M21.529,23.592c0.402-0.296,0.822-0.628,1.26-0.996c0.441-0.371,0.879-0.774,1.317-1.219
			c0.438-0.442,0.84-0.924,1.204-1.438c0.438-0.594,1.023-1.771,1.754-3.547c0.731-1.771,1.095-3.287,1.095-4.54
			c-1.239,0.735-2.482,1.067-3.725,0.996c-1.242-0.074-2.338-0.442-3.287-1.108c-0.728-0.664-1.388-1.438-1.974-2.325
			c-0.586-0.885-0.876-1.957-0.876-3.21c0-1.847,0.675-3.344,2.027-4.488C21.677,0.57,23.156,0,24.763,0
			c1.826,0,3.326,0.46,4.491,1.384c1.169,0.923,1.977,2.344,2.414,4.266c0.438,1.4,0.456,3.451,0.054,6.146
			c-0.399,2.695-1.225,5.038-2.468,7.035c-1.095,1.844-2.373,3.376-3.834,4.594c-1.459,1.219-2.85,2.05-4.163,2.494
			c-0.802,0.221-1.278,0.129-1.423-0.277c-0.146-0.406,0.074-0.831,0.657-1.273C20.783,24.146,21.13,23.887,21.529,23.592z"/>
	</g>
</g>
</svg>
