<?xml version="1.0" encoding="utf-8"?>
<!-- Generator: Adobe Illustrator 16.0.0, SVG Export Plug-In . SVG Version: 6.00 Build 0)  -->
<!DOCTYPE svg PUBLIC "-//W3C//DTD SVG 1.1//EN" "http://www.w3.org/Graphics/SVG/1.1/DTD/svg11.dtd">
<svg version="1.1" id="Layer_1" xmlns="http://www.w3.org/2000/svg" xmlns:xlink="http://www.w3.org/1999/xlink" x="0px" y="0px"
	 width="77px" height="100px" viewBox="0 0 77 100" enable-background="new 0 0 77 100" xml:space="preserve">
<path fill="#FFFFFF" d="M43.373,27.944c0,0-10.449,0-19.927,9.228V0H0v97.663h23.689v-7.651c0,0,5.583,10.091,19.684,10.091
	c0,0,33.035-1.215,33.035-36.444C76.408,63.658,75.193,27.944,43.373,27.944z M38.211,79.486c-8.315,0-15.066-6.748-15.066-15.069
	c0-8.314,6.751-15.06,15.066-15.06c8.314,0,15.06,6.745,15.06,15.06C53.271,72.738,46.525,79.486,38.211,79.486z"/>
</svg>
