<?xml version="1.0" encoding="utf-8"?>
<!-- Generator: Adobe Illustrator 16.0.0, SVG Export Plug-In . SVG Version: 6.00 Build 0)  -->
<!DOCTYPE svg PUBLIC "-//W3C//DTD SVG 1.1//EN" "http://www.w3.org/Graphics/SVG/1.1/DTD/svg11.dtd">
<svg version="1.1" id="Layer_1" xmlns="http://www.w3.org/2000/svg" xmlns:xlink="http://www.w3.org/1999/xlink" x="0px" y="0px"
	 width="100px" height="100px" viewBox="0 0 100 100" enable-background="new 0 0 100 100" xml:space="preserve">
<g>
	<path fill="#FFFFFF" d="M50,9.009c13.351,0,14.932,0.051,20.205,0.291c4.874,0.223,7.521,1.037,9.284,1.722
		c2.333,0.907,3.999,1.991,5.749,3.74s2.832,3.415,3.74,5.749c0.685,1.762,1.499,4.409,1.722,9.284
		c0.24,5.272,0.291,6.854,0.291,20.205S90.94,64.932,90.7,70.205c-0.223,4.874-1.037,7.521-1.722,9.284
		c-0.908,2.333-1.99,3.999-3.74,5.749s-3.416,2.832-5.749,3.74c-1.763,0.685-4.41,1.499-9.284,1.722
		c-5.272,0.24-6.854,0.291-20.205,0.291S35.066,90.94,29.796,90.7c-4.875-0.223-7.523-1.037-9.284-1.722
		c-2.335-0.908-4-1.99-5.75-3.74c-1.749-1.75-2.833-3.416-3.739-5.749c-0.685-1.763-1.5-4.41-1.722-9.284
		C9.06,64.932,9.009,63.351,9.009,50s0.05-14.932,0.292-20.204c0.222-4.875,1.037-7.523,1.722-9.285c0.907-2.334,1.99-4,3.739-5.749
		c1.75-1.75,3.416-2.833,5.75-3.74c1.761-0.685,4.409-1.499,9.283-1.722C35.068,9.06,36.649,9.009,50,9.009 M50,0
		c-13.579,0-15.282,0.057-20.615,0.3c-5.322,0.243-8.957,1.088-12.136,2.325c-3.29,1.277-6.078,2.987-8.857,5.767
		c-2.781,2.78-4.489,5.568-5.768,8.856c-1.236,3.18-2.081,6.815-2.324,12.137C0.057,34.718,0,36.421,0,50
		c0,13.58,0.057,15.282,0.3,20.614c0.244,5.322,1.088,8.957,2.324,12.138c1.278,3.288,2.987,6.076,5.768,8.856
		c2.779,2.779,5.567,4.488,8.857,5.767c3.179,1.236,6.814,2.082,12.136,2.324C34.718,99.942,36.421,100,50,100
		c13.58,0,15.282-0.058,20.615-0.301c5.321-0.242,8.956-1.088,12.137-2.324c3.288-1.278,6.076-2.987,8.857-5.767
		c2.779-2.78,4.487-5.568,5.766-8.856c1.236-3.181,2.082-6.815,2.324-12.138C99.943,65.282,100,63.58,100,50
		c0-13.579-0.057-15.282-0.301-20.615c-0.242-5.322-1.088-8.957-2.324-12.137c-1.278-3.288-2.986-6.077-5.766-8.856
		c-2.781-2.78-5.569-4.489-8.857-5.767c-3.181-1.237-6.815-2.082-12.137-2.325C65.282,0.058,63.58,0,50,0L50,0z"/>
	<path fill="#FFFFFF" d="M50,24.324C35.819,24.324,24.324,35.82,24.324,50c0,14.181,11.495,25.676,25.676,25.676
		S75.676,64.181,75.676,50C75.676,35.82,64.181,24.324,50,24.324z M50,66.667c-9.205,0-16.666-7.463-16.666-16.667
		c0-9.205,7.461-16.666,16.666-16.666S66.667,40.795,66.667,50C66.667,59.204,59.205,66.667,50,66.667z"/>
	<circle fill="#FFFFFF" cx="76.69" cy="23.31" r="6"/>
</g>
</svg>
