<?xml version="1.0" encoding="utf-8"?>
<!-- Generator: Adobe Illustrator 16.0.0, SVG Export Plug-In . SVG Version: 6.00 Build 0)  -->
<!DOCTYPE svg PUBLIC "-//W3C//DTD SVG 1.1//EN" "http://www.w3.org/Graphics/SVG/1.1/DTD/svg11.dtd">
<svg version="1.1" id="Layer_1" xmlns="http://www.w3.org/2000/svg" xmlns:xlink="http://www.w3.org/1999/xlink" x="0px" y="0px"
	 width="400px" height="400px" viewBox="0 0 400 400" enable-background="new 0 0 400 400" xml:space="preserve">
<circle fill-rule="evenodd" clip-rule="evenodd" fill="none" cx="199.979" cy="192.624" r="155.612"/>
<text transform="matrix(0.8333 0.5528 -0.5528 0.8333 109.0566 319.0508)"><tspan x="0" y="0" fill="#231F20" font-family="'AmeriGarmnd-BT'" font-size="18.1409">A</tspan><tspan x="12.509" y="-0.041" fill="#231F20" font-family="'AmeriGarmnd-BT'" font-size="18.1409" rotate="-4.382">R</tspan><tspan x="23.877" y="-0.93" fill="#231F20" font-family="'AmeriGarmnd-BT'" font-size="18.1409" rotate="-8.593">T</tspan><tspan x="35.115" y="-2.714" fill="#231F20" font-family="'AmeriGarmnd-BT'" font-size="18.1409" rotate="-11.876">I</tspan><tspan x="41.339" y="-4.006" fill="#231F20" font-family="'AmeriGarmnd-BT'" font-size="18.1409" rotate="-14.6">S</tspan><tspan x="49.603" y="-6.109" fill="#231F20" font-family="'AmeriGarmnd-BT'" font-size="18.1409" rotate="-18.483">A</tspan><tspan x="61.57" y="-10.094" fill="#231F20" font-family="'AmeriGarmnd-BT'" font-size="18.1409" rotate="-23.531">N</tspan><tspan x="74.712" y="-15.995" fill="#231F20" font-family="'AmeriGarmnd-BT'" font-size="18.1409" rotate="-27.124"> </tspan><tspan x="79.116" y="-18.167" fill="#231F20" font-family="'AmeriGarmnd-BT'" font-size="18.1409" rotate="-30.144">B</tspan><tspan x="89.199" y="-23.997" fill="#231F20" font-family="'AmeriGarmnd-BT'" font-size="18.1409" rotate="-34.861">O</tspan><tspan x="100.783" y="-32.035" fill="#231F20" font-family="'AmeriGarmnd-BT'" font-size="18.1409" rotate="-40.503">U</tspan><tspan x="111.031" y="-40.81" fill="#231F20" font-family="'AmeriGarmnd-BT'" font-size="18.1409" rotate="-44.073">L</tspan><tspan x="117.875" y="-47.387" fill="#231F20" font-family="'AmeriGarmnd-BT'" font-size="18.1409" rotate="-48.105">A</tspan><tspan x="126.32" y="-56.783" fill="#231F20" font-family="'AmeriGarmnd-BT'" font-size="18.1409" rotate="-53.143">N</tspan><tspan x="135.052" y="-68.514" fill="#231F20" font-family="'AmeriGarmnd-BT'" font-size="18.1409" rotate="-58.426">G</tspan><tspan x="142.19" y="-80.293" fill="#231F20" font-family="'AmeriGarmnd-BT'" font-size="18.1409" rotate="-62.929">E</tspan><tspan x="146.951" y="-89.618" fill="#231F20" font-family="'AmeriGarmnd-BT'" font-size="18.1409" rotate="-66.967">R</tspan></text>
<path fill-rule="evenodd" clip-rule="evenodd" fill="#231F20" d="M245.099,292.707c-2.886-1.284-2.224-2.137-0.414-3.973
	c4.57-4.638,6.799-10.007,3.681-16.444c-0.729-1.511-0.742-2.495,0.888-3.663c2.899-2.075,2.451-5.973-1.136-6.693
	c-4.052-0.815-5.313-3.733-7.282-6.341c-3.014-4.604-7.212-7.266-12.732-7.749c-1.376-2.22-2.987-3.768-4.421-4.836
	c-0.011-0.01-0.021-0.019-0.021-0.019v0.004c-0.113-0.093-0.226-0.183-0.34-0.271l0.002-0.001c-0.009-0.005-0.017-0.009-0.023-0.015
	c-0.493-0.37-1.017-0.681-1.559-0.947c-0.004-0.002-0.008-0.004-0.013-0.006c-1.121-0.606-1.88-0.837-1.88-0.837l-0.006,0.008
	c-2.249-0.815-4.256-0.912-5.602-0.821c-0.029,0.002-0.06,0.005-0.089,0.006c-1.014,0.076-1.632,0.242-1.651,0.248
	c-0.585,0.12-1.168,0.257-1.754,0.354v0.002c-0.019,0.003-0.033,0.004-0.052,0.007c-0.161,0.026-0.321,0.05-0.481,0.068
	c-3.338,0.439-4.142-1.193-4.324-2.153c-0.052-0.188-0.071-0.386-0.054-0.599c0.001-0.03,0.002-0.049,0.002-0.049h0.001
	c0.058-0.53,0.338-1.155,0.934-1.945c2.876-3.813,1.612-6.307-3.155-7.009c-5.448-0.802-10.785-0.188-15.819,2.174
	c-5.645,2.646-7.368,6.072-6.268,12.243c0.163,0.914,1.035,2.45,0.06,2.622c-3.447,0.607-5.592,4.753-10.16,2.715
	c-8.175-3.648-17.833,0.066-21.48,7.537c-2.563,5.254-0.787,9.176,4.92,10.007c4.677,0.681,9.438,1.024,14.165,1.054
	c4.71,0.029,4.613,4.518,6.619,6.87c1.07,1.256-0.844,2.081-2.25,2.877c-0.124,0.08-10.557,6.848-7.05,16.362
	c4.032,8.963,11.424,14.238,20.716,16.8c3.812,1.053,5.833-1.112,5.893-5.066c0.07-4.564-1.83-8.585-3.386-12.706
	c-0.857-2.272-2.314-4.433-1.625-7.04c0.17-0.341,0.567-0.624,1.497,0.037c0,0,0.004-0.007,0.005-0.009
	c12.414,9.123,26.206,12.132,41.31,8.961c2.161-0.452,2.385,0.388,2.732,2.091c1.009,4.919,4.478,6.595,9.1,6.153
	c3.256-0.31,7.343-0.703,8.146-4.205C251.5,295.215,247.698,293.865,245.099,292.707z M168.615,263.156
	c-0.25,0.754-1.349,1.067-2.453,0.698c-1.105-0.365-1.797-1.275-1.547-2.026c0.25-0.754,1.349-1.066,2.453-0.699
	C168.172,261.495,168.865,262.404,168.615,263.156z M224.855,286.105c-16.199,1.117-30.075-4.36-40.557-16.824
	c-9.956-11.838-4.027-26.885,11.239-29.611c7.469-1.334,12.001,1.422,14.01,8.77c2.067,7.564,1.404,15.255,0.75,22.932
	c-0.129,1.54-1.205,3.679,0.765,4.401c2.323,0.85,2.881-1.587,3.579-3.114c1.104-2.416,1.928-4.891,2.437-7.417l0.008,0.01
	c1.376-6.402,0.228-11.062,0.228-11.062l-0.004,0.063c-0.582-2.934-2.145-4.595-2.145-4.595l-0.001,0.001
	c-1.067-1.387-2.308-2.36-2.308-2.36l-0.799-0.818c-0.813-1.062-1.571-2.152-1.569-3.631c4.467-1.723,8.398-1.106,11.864,1.564
	c0.603,0.501,1.784,1.644,2.843,3.61c0.097,0.191,0.188,0.384,0.279,0.575c0.108,0.226,0.222,0.443,0.328,0.688
	c3.405,7.64,3.532,15.756,2.296,24.081c-0.223,1.507-1.485,3.691,0.47,4.356c2.347,0.8,2.773-1.837,3.212-3.366
	c0.612-2.147,1.206-4.304,1.644-6.486l0.007,0.023c1.073-4.186,0.854-7.168,0.504-8.902c-0.075-0.443-0.188-0.867-0.335-1.27
	c-0.115-0.334-0.2-0.512-0.2-0.512l0,0c-1.334-2.97-4.342-4.998-5.081-8.272c3.236,0.38,6.292,2.589,8.493,4.67v0.001
	c0,0,0.014,0.014,0.022,0.02c0.127,0.12,0.244,0.237,0.365,0.356c0.837,0.858,2.849,3.18,4.151,6.793
	c0.011,0.034,0.019,0.067,0.031,0.101C245.987,274.67,239.323,285.107,224.855,286.105z M213.11,249.639
	c0.002-0.058,0.012-0.111,0.026-0.162c0.01-0.027,0.019-0.057,0.034-0.081c0.01-0.016,0.019-0.03,0.029-0.043
	c0.047-0.048,0.107-0.083,0.198-0.09c0.05,0.003,0.099,0.02,0.147,0.036c0.022,0.01,0.068,0.036,0.122,0.075
	c0.017,0.02,0.507,0.611,0.934,1.52c1.571,3.785,1.345,7.683,0.326,11.646c-0.062,0.186-0.215,0.597-0.356,0.594
	c-0.115-0.04-0.162-0.345-0.172-0.416C213.966,258.357,213.531,253.999,213.11,249.639z M230.633,257.873
	c0-0.004,0.012-0.486,0.221-0.267c1.646,2.265,1.19,4.671,0.544,7.091c-0.171,0.642-0.29-0.015-0.292-0.019
	C230.949,262.41,230.791,260.143,230.633,257.873z"/>
<g>
	<path fill-rule="evenodd" clip-rule="evenodd" fill="#242021" d="M139.963,158.929c-0.446-1.012,10.689-6.712,16.608-8.798
		c0.871-0.307,2.042-0.692,2.548,0.436c0.455,1.016-0.342,1.957-1.132,2.465C152.513,156.553,140.41,159.941,139.963,158.929z"/>
	<path fill-rule="evenodd" clip-rule="evenodd" fill="#242021" d="M223.169,160.049l0.004-0.001c0,0-0.723-1.334-0.917-1.802
		c-0.358-0.878-0.636-1.734-0.686-1.937c-0.561-2.773-0.911-5.341-3.109-6.16c-4.268-1.588-6.341,3.573-9.113,6.125
		c-0.609,0.561-1.469,1.007-2,1.719c-0.001,0.001-0.004,0.004-0.005,0.006c-0.09,0.12-0.164,0.252-0.231,0.39
		c-0.023,0.048-0.045,0.099-0.066,0.152c-0.036,0.088-0.06,0.183-0.086,0.279c-0.089,0.45,0.078,0.92,1.098,0.979
		c0.075,0.003,0.152,0.011,0.226,0.011c0.107,0,0.23-0.008,0.354-0.017c3.027-0.196,4.965-2.79,7.619-4.715
		c0.064-0.023,0.296-0.084,0.408,0.268l0.004-0.008c0.557,1.851,1.424,3.402,3.153,4.334l-0.002,0.003
		c0.106,0.054,0.196,0.095,0.296,0.144c0.057,0.026,0.108,0.055,0.167,0.081c1.81,0.972,2.541,1.049,2.812,0.857v0
		c0,0,0-0.001,0.002-0.002c0.029-0.021,0.055-0.043,0.073-0.07C223.356,160.495,223.273,160.239,223.169,160.049z"/>
	<path fill-rule="evenodd" clip-rule="evenodd" fill="#231F20" d="M319.06,187.101L319.06,187.101
		c-1.119,1.346-2.104,2.534-3.087,3.706c-3.399,4.045-7.055,7.787-12.214,9.551c-2.646,0.905-5.399,1.59-7.755,0.274
		c-4.946-2.862-3.487-10.435-2.953-12.596c0.054-0.201,0.106-0.401,0.16-0.602c0.346-1.282,1.15-1.013,2.26-0.641
		c4.322,1.453,7.77,1.788,10.704,0.932l-0.002,0.014c0.039-0.014,0.075-0.031,0.114-0.046c1.103-0.334,2.133-0.843,3.105-1.527
		c7.381-4.562,7.44-12.461,7.44-12.461l-0.008,0.001c0.022-0.476,0.017-0.943-0.038-1.396c-0.598-7.917-8.076-8.758-9.814-8.847
		c-0.064-0.004-0.127-0.006-0.191-0.008c-0.108-0.003-0.173-0.003-0.173-0.003l0.002,0.005c-0.146-0.001-0.294,0.009-0.441,0.015
		v-0.002c0,0-0.031,0.002-0.08,0.004c-0.644,0.033-1.298,0.138-1.974,0.319c-3.48,0.815-10.631,3.684-15.417,13.751
		c-1.208,2.218-2.176,4.605-2.917,7.145h-0.003c0,0-1.43,5.059-3.57,9.22c-4.81,9.022-10.154,7.07-10.864,6.758
		c-1.613-1.03-1.94-2.717-1.778-4.525c0.228-2.502,1.28-4.714,2.56-6.831c2.37-3.919,4.767-7.821,7.109-11.756
		c0.248-0.416,0.471-0.839,0.682-1.266l0.002,0.005c4.105-6.905,1.301-9.834-0.079-10.769c-0.365-0.265-0.643-0.36-0.643-0.36v0
		c-1.066-0.488-2.532-0.363-4.429,0.367c-4.141,1.594-7.268,4.821-11.113,7.124c-0.971-9.456-3.922-10.824-11.59-5.497
		c-2.683,1.864-5.152,4.034-7.991,6.28c0.24-1.964,0.494-3.407,0.567-4.859c0.085-1.673-0.096-3.687-1.615-4.367
		c-1.332-0.598-1.961,0.142-2.455,1.063v0c0,0-1.47,2.319-3.175,4.572c-2.793,3.506-5.811,6.764-9.991,8.832
		c-2.76,1.364-4.16,1.596-4.3-2.52c-0.237-7.02-5.175-11.574-10.936-11.786v-0.001c-8.273-0.806-14.548,8.272-16.774,12.03
		c-0.04,0.068-0.081,0.137-0.121,0.205c-0.324,0.555-0.548,0.971-0.665,1.196c-0.002,0.004-0.005,0.009-0.008,0.014
		c-0.058,0.113-0.089,0.175-0.089,0.175l0.002,0.001c-1.333,2.573-2.338,5.358-3.028,8.328c-1.271,5.472-4.348,9.688-8.498,13.193
		c-1.479,1.105-3.927,2.322-6.164,0.603c-1.171-1.12-1.245-2.73-1.198-4.311c0.121-4.092,1.885-7.628,4.183-10.838
		c2.564-3.584,5.41-6.97,8.183-10.401c2.748-3.401,1.351-6.458-0.802-9.356c-1.269-1.708-2.348-1.503-3.362-0.853
		c-0.001,0.001-0.002,0.001-0.003,0.002c-0.032,0.021-0.063,0.04-0.095,0.061c-4.935,3.263-9.074,4.278-9.696,4.417
		c-0.291,0.035-0.582,0.069-0.885,0.077c0.631-3.06,1.395-5.869,1.74-8.728c0.238-1.97-0.384-3.718-3.076-2.919
		c-5.532,1.64-9.285,10.574-6.366,15.427c0.591,0.981,0.753,1.623,0.238,2.612c-4.954,9.509-10.333,18.688-20.179,24.041
		c-3.05,1.658-6.489,2.909-9.765,0.709c-0.305-0.202-0.585-0.419-0.833-0.659c-0.016-0.014-0.031-0.028-0.046-0.042
		c-3.305-3.25-1.734-9.587-0.942-12.074c0.021-0.068,0.057-0.175,0.109-0.335c0.011-0.033,0.02-0.061,0.03-0.091
		c0.188-0.552,0.923-0.388,0.923-0.388l0.004-0.005c3.466,1.299,6.506,1.827,9.174,1.535l0,0.002
		c0.018-0.003,0.035-0.007,0.053-0.01c1.156-0.132,2.239-0.431,3.263-0.871c7.316-2.738,9.009-9.485,9.384-12.985
		c0.077-0.44,0.128-0.879,0.135-1.318h0.001c0,0,0.341-5.268-3.848-7.859c-4.152-2.732-8.926-1.031-8.926-1.031v0.007
		c-0.918,0.267-1.874,0.662-2.888,1.209c-7.261,3.916-11.884,10.196-14.69,17.758c-2.338,6.3-2.675,12.614,2.739,17.747
		c4.306,4.083,11.649,4.29,18.449,0.831c2.793-1.421,5.262-3.292,7.526-5.45c0.072-0.069,0.142-0.14,0.215-0.209
		c3.31-3.417,6.227-7.632,6.364-7.832c1.552-2.32,3.373-5.132,4.74-7.515c0.211-0.418,0.435-0.815,0.667-1.194
		c0.019-0.036,0.042-0.075,0.061-0.11l0.004,0.008c3.029-4.852,7.773-6.522,13.675-7.247c-1.252,1.541-2.402,2.903-3.495,4.31
		c-3.629,4.674-7.102,9.471-8.153,15.467c-0.715,4.078-0.115,7.943,3.551,10.542c3.553,2.519,7.374,2.273,11.185,0.499
		c2.994-1.395,5.227-3.721,7.216-6.353c4.049,5.176,8.163,7.653,12.305,7.511c0.381-0.017,0.755-0.052,1.123-0.104
		c0.197-0.03,0.395-0.054,0.593-0.095c0.157-0.032,0.313-0.073,0.468-0.111c2.78-0.716,5.57-2.604,8.359-5.676
		c4.336-5.09,6.565-11.564,6.565-11.564l0.005-0.001c1.805-4.422,5.892-4.759,10.346-5.353c-2.635,5.78-6.073,10.901-6.701,17.089
		c-0.227,2.23,0.198,4.798,2.387,5.438c2.355,0.686,2.354-2.218,3.022-3.633c3.222-6.822,6.796-13.375,11.523-19.069l-0.004-0.008
		c4.897-7.012,9.912-9.597,11.692-10.342c0.112-0.051,0.229-0.096,0.346-0.14c0.213-0.08,0.333-0.118,0.333-0.118v0.012
		c0.638-0.189,1.343-0.286,2.17-0.202c0.186,0.078,0.373,0.342-0.169,1.235c-3.312,5.395-6.452,10.432-9.479,15.516
		c-2.361,3.965-4.285,8.137-4.239,12.887c0.019,1.987,0.394,4.401,2.507,4.849c1.974,0.419,2.174-2.1,2.82-3.449
		c4.914-10.293,10.976-19.726,19.848-27.105c1.805-1.502,3.633-3.009,6.27-3.95c0,0,0.015-0.005,0.017-0.006
		c0.021-0.007,0.042-0.012,0.063-0.019c0.202-0.061,0.75-0.182,0.892,0.17c0.005,0.004,0.52,0.474-0.983,2.76v0
		c-0.584,1.03-1.263,1.896-1.843,2.8c-3.003,4.677-6.298,9.19-8.418,14.372c-1.617,3.957-2.38,8.096,1.04,11.452
		c3.552,3.485,7.92,3.383,12.363,1.734c3.458-1.284,5.911-3.89,8.443-6.401c0.244-0.129,0.592-0.133,1.007,0.375l0.009-0.012
		c5.765,7.454,12.853,8.92,22.194,4.656c1.126-0.515,2.183-1.076,3.166-1.676c7.226-4.713,8.394-10.718,8.583-12.557
		c0.013-0.118,0.024-0.236,0.031-0.335c0-0.03,0.002-0.06,0.004-0.083C320.118,185.41,319.06,187.101,319.06,187.101z
		 M296.037,180.667c1.402-2.817,4.804-8.309,11.332-11.951c0.075-0.047,0.156-0.093,0.233-0.139c0.978-0.475,2.305-0.876,3.131-0.12
		c0.068,0.062,0.133,0.123,0.189,0.185c0.146,0.186,0.316,0.543,0.314,1.141l0.004-0.002c0,0,0.481,4.153-6,10.756
		c-0.033,0.034-0.064,0.067-0.099,0.101c-0.06,0.061-0.11,0.118-0.173,0.18l0.005-0.019c-0.68,0.687-1.405,1.323-2.207,1.879
		l0.002,0.003c0,0-5.02,3.937-7.183,1.322C294.958,183.124,295.798,181.174,296.037,180.667z M136.01,181.108
		c2.71-4.739,5.992-8.982,10.652-11.958c0.242-0.154,0.496-0.329,0.757-0.502c0.563-0.351,1.791-1.002,2.731-0.697
		c0.172,0.07,0.345,0.168,0.518,0.304c0.008,0.006,0.013,0.012,0.021,0.018c0.014,0.013,0.042,0.044,0.069,0.072
		c0.127,0.151,0.344,0.528,0.341,1.31l0.001,0c0,0-0.001,0.012-0.001,0.013c-0.002,0.358-0.052,0.802-0.178,1.348
		c-0.283,1.57-1.032,4.286-2.927,6.974l0.001,0.002c-0.092,0.132-0.184,0.254-0.276,0.381c-0.04,0.053-0.075,0.107-0.116,0.161
		c-5.594,7.577-11.006,5.541-11.044,5.526C135.503,183.745,134.907,183.037,136.01,181.108z M214.203,185.365
		c-0.38,0.74-0.765,1.476-1.155,2.207l0.004,0.001c0,0-7.833,15.817-14.185,12.022c-0.296-0.164-0.55-0.347-0.774-0.543l0,0.001
		c-0.002-0.002-0.004-0.004-0.006-0.006c-0.4-0.351-0.694-0.75-0.904-1.182c-2.457-4.664,2.626-14.205,2.626-14.205l0.005,0.003
		c2.085-4.398,5.141-8.369,9.16-12.06c0.888,2.965,1.731,5.42,3.841,6.79C215.858,180.37,215.639,182.557,214.203,185.365z
		 M217.017,177.53c-0.436,1.477-1.799-1.06-1.799-1.06l0.005-0.006c-1.224-1.914-1.54-3.983-0.556-6.181
		c0.177-0.395,0.579-0.865,1.036-0.862c1.042-0.1,1.65,1.734,1.65,1.734v0.001C217.823,172.284,218.134,174.29,217.017,177.53z"/>
	<path fill-rule="evenodd" clip-rule="evenodd" fill="#231F20" d="M135.423,144.524c-0.217-1.263-0.441-2.844-1.833-3.254
		c-1.684-0.498-2.123,1.243-2.696,2.278c-3.716,6.722-7.331,13.499-10.995,20.25c-5.062,9.329-9.112,19.204-15.021,28.075
		c-2.275,3.415-4.739,6.716-8.617,8.502c-4.899,2.256-8.914,0.022-9.574-5.318c-0.212-1.72-0.111-3.405,0.139-5.076
		c0.397-2.331,2.092-7.486,2.092-7.486l0,0c0.326-0.881,0.336-1.707-0.844-2.269c-1.887-0.898-3.688,0.997-4.877,2.526
		c-3.363,4.326-4.27,9.232-2.132,14.306c2.43,5.767,7.461,7.368,13.254,7.393c9.45-0.067,15.374-5.717,19.965-13.059
		c7.548-12.071,13.846-24.819,19.667-37.801C135.241,150.715,135.966,147.693,135.423,144.524z"/>
	
		<ellipse transform="matrix(0.9488 -0.3159 0.3159 0.9488 -15.2256 65.7075)" fill-rule="evenodd" clip-rule="evenodd" fill="#242021" cx="195.055" cy="79.815" rx="3.927" ry="4.924"/>
	<path fill-rule="evenodd" clip-rule="evenodd" fill="#231F20" d="M283.911,108.07c-0.36-1.257-1.184-0.142-1.184-0.142
		l-0.002-0.003c-5.238,6.104-10.571,11.143-17.935,13.883c4.287-8.431,8.549-16.876,12.878-25.286
		c1.369-2.664,2.486-5.372,2.151-8.422c-0.159-1.437-0.277-3.24-1.849-3.766c-1.874-0.628-2.445,1.313-3.12,2.461
		c-3.564,6.064-6.947,12.232-10.507,18.298c-1.338,2.279-2.69,4.556-4.171,6.736c0,0,0.005,0.008,0.005,0.008
		c-0.467,0.761-0.926,1.441-1.382,2.086l0.008,0.001c-6.369,10.256-10.487,7.183-10.487,7.183c-0.023-0.011-0.042-0.023-0.063-0.035
		c-0.132-0.082-0.25-0.168-0.361-0.257c-1.119-0.983-0.932-3.069-0.465-4.915c0.071-0.215,0.145-0.434,0.209-0.642
		c2.009-6.298,5.544-11.821,9.002-17.381c1.825-2.938,3.51-5.952,3.072-9.621c-0.18-1.509-0.613-3.095-2.045-3.704
		c-1.901-0.807-2.455,1.155-3.221,2.235c-5.313,7.507-9.89,15.426-12.94,24.147c-1.803,5.151-5.648,8.364-10.369,10.504
		c-2.271,1.03-4.139,0.73-5.106-0.636c0,0,0,0,0,0c-0.181-0.255-0.331-0.547-0.443-0.876c-2.041-4.916,1.88-12.946,1.88-12.946
		l0.006,0.005c1.032-2.296,2.6-4.404,5.075-6.201c8.735-6.343,15.599-14.44,19.427-24.755c0.351-0.942,0.678-1.892,0.944-2.851
		l0.006,0.009c1.685-5.195-0.077-8.458-1.316-9.974c-0.301-0.405-0.621-0.728-0.961-0.974c-0.017-0.013-0.036-0.028-0.036-0.028
		l-0.004,0.003c-1.619-1.135-3.677-0.469-6.031,2.099c-11.226,12.238-19.581,26.133-24.156,42.203
		c-1.9,6.668-6.458,11.311-12.312,14.607c-2.227,1.254-4.195,1.266-5.362,0.267l-0.001,0.001c-0.005-0.003-0.007-0.007-0.011-0.011
		c-0.035-0.03-0.066-0.064-0.1-0.096c-2.798-2.277-0.039-11.512-0.039-11.512l0.006-0.003c0.889-3.292,2.59-6.309,5.909-8.758
		c8.693-6.416,15.599-14.439,19.585-24.661c1.132-2.899,2.063-5.904,1.418-9.092c-0.496-2.437-1.591-4.695-3.939-5.597
		c-1.707-0.562-3.735,1.46-4.483,2.302c-0.14,0.171-0.279,0.337-0.421,0.491c-10.911,11.85-19.077,25.334-23.653,40.838
		c-1.48,5.014-4.019,9.302-7.65,12.934c-0.732,0.733-1.524,1.564-2.37,2.274c-2.957,2.22-5.386,1.11-5.834,0.869
		c-2.999-2.093-0.909-5.626,0.272-8.163c2.549-5.478,5.603-10.72,8.45-16.058c1.667-3.127,2.651-6.404,1.477-9.9
		c-0.544-1.618-1.816-3.453-3.404-1.117c-6.263,9.205-12.637,18.476-14.47,29.754c-1,6.159,3.358,9.924,9.609,9.084
		c4.972-0.668,8.705-3.525,12.005-7.106c5.52,9.5,12.041,9.513,23.864,0.161c4.421,7.413,10.419,8.947,18.019,4.214
		c2.415-1.505,3.563-1.954,5.654,0.684c2.26,2.853,5.911,2.391,9.089,1.01c1.841-0.8,3.513-1.995,5.424-3.107
		c-0.592,4.018-2.651,6.23-6.24,7.544c-4.004,1.464-7.57,3.87-10.782,6.717c-4.162,3.688-7.284,8.083-7.97,13.704
		c-0.396,3.229,0.336,6.29,2.197,8.581c1.063,1.238,2.18,1.915,3.247,2.26c0.188,0.065,0.375,0.117,0.563,0.159
		c0.123,0.026,0.246,0.045,0.367,0.063c3.13,0.438,6.226-2.208,7.511-3.488c3.866-3.983,7.339-9.824,8.627-12.108
		c2.172-3.964,4.045-8.087,5.779-12.27c1.347-3.249,3.185-5.314,6.514-6.659c4.453-1.8,8.672-4.061,12.078-7.401
		c0.008-0.008,0.017-0.016,0.024-0.023c0.49-0.481,0.952-0.995,1.405-1.523c0.127-0.151,0.263-0.303,0.381-0.451
		c0.146-0.178,0.277-0.373,0.419-0.556c2.56-3.466,2.705-6.167,2.699-6.797C283.953,108.412,283.944,108.248,283.911,108.07z
		 M233.044,94.481c4.445-7.459,8.574-15.062,14.677-22.278v-0.005c0,0,0.606-0.879,1.078-0.744c0.002,0,0.004-0.001,0.004-0.001
		c0.05,0.015,0.1,0.031,0.146,0.073v0c0.104,0.113,0.145,0.367,0.059,0.863c-1.859,8.961-9.693,20.357-15.346,22.983
		c-1.315,0.392-0.613-0.886-0.613-0.886S233.046,94.481,233.044,94.481z M210.33,93.967c3.715-7.468,7.703-14.761,13.469-20.834
		c0.151-0.15,0.388-0.36,0.604-0.46c0.003-0.001,0.005-0.002,0.009-0.003c0.002-0.001,0.004-0.001,0.006-0.002
		c0.294-0.103,0.632-0.068,0.404,0.781c-2.265,8.698-7.19,15.622-13.953,21.325C209.63,95.747,210.271,94.113,210.33,93.967z
		 M251.756,133.208c-1.592,3.628-3.258,7.208-5.298,10.562l0.004,0.001c0,0-5.239,8.717-8.034,9.995
		c-0.924,0.372-1.053-0.276-1.069-0.48c-0.042-0.714-0.066-2.598,0.608-4.809l0,0c0.65-2.456,1.982-5.498,4.677-8.508l0.007,0.006
		c2.228-2.737,5.035-5.104,8.192-7.245C251.035,132.607,252.39,131.762,251.756,133.208z"/>
	<path fill-rule="evenodd" clip-rule="evenodd" fill="#231F20" d="M183.268,69.988l-0.001,0c-1.453-4.574-6.206-7.266-6.206-7.266
		l0.003,0.022c-0.494-0.338-1.004-0.623-1.515-0.834c-0.035-0.016-0.06-0.027-0.06-0.027l0.003,0.006
		c-1.043-0.423-2.061-0.622-2.818-0.706c-0.057-0.007-0.115-0.012-0.172-0.018c-0.67-0.064-1.105-0.045-1.105-0.045l0.003,0.012
		c-4.501,0.125-10.38,3.387-14.592,6.162c-1.746,1.068-3.396,2.252-4.955,3.548c-0.258,0.202-0.402,0.318-0.402,0.318v0.022
		c-4.52,3.86-8.214,8.718-10.891,14.75c-2.763,6.226-1.287,11.8,3.867,16.392c4.067,3.625,8.868,6.128,13.374,9.087
		c1.964,1.29,4.971,2.284,4.461,5.135c-0.676,3.421-4.841,3.913-5.963,3.984c-0.534,0.027-1.07,0.037-1.596,0.047
		c-3.036,0.058-5.857-0.886-8.419-2.346c-3.117-1.775-6.097-3.809-9.043-5.864c-2.652-1.849-5.485-2.895-8.732-2.608
		c-2.245,0.199-3.751,0.904-1.639,3.255c6.702,7.461,14.646,12.497,24.746,12.659c6.935-0.161,12.521-2.249,15.911-8.382
		c2.464-4.458,1.801-7.124-2.539-9.898c-4.132-2.641-8.512-4.924-12.481-7.784c-5.752-4.145-6.506-7.901-2.635-13.862
		c5.524-8.508,13.427-14.18,22.857-17.758c1.362-0.517,2.936-1.058,4.129,0.237c1.252,1.358,0.362,2.858-0.352,4.075
		c-2.069,3.522-4.39,6.898-6.433,10.433c-1.799,3.11-2.669,6.393-0.271,9.661c0.976,1.331,2.076,2.257,3.348,0.228
		c3.036-4.848,6.311-9.561,9.061-14.564c0.083-0.15,0.139-0.298,0.21-0.447l0.01,0.018C184.77,73.548,183.268,69.988,183.268,69.988
		z"/>
</g>
<g>
	<path fill="#231F20" d="M59.253,340.755c0,0-0.836-0.875-2.457-2.573c-0.811-0.849-1.817-1.902-3.013-3.155
		c-0.591-0.637-1.26-1.278-1.919-2.051c-0.663-0.768-1.371-1.587-2.121-2.457c-0.751-0.87-1.545-1.792-2.383-2.763
		c-0.828-0.978-1.748-1.973-2.586-3.102c-1.719-2.228-3.635-4.632-5.635-7.282c-1.882-2.735-4.003-5.61-6.084-8.799
		c-1.017-1.609-2.064-3.271-3.144-4.98c-0.535-0.859-1.103-1.715-1.633-2.609c-0.512-0.906-1.032-1.824-1.558-2.755
		c-1.05-1.864-2.127-3.777-3.232-5.741c-1.011-2.013-2.046-4.076-3.106-6.188c-1.105-2.093-2.045-4.323-3.047-6.584
		c-0.984-2.269-2.075-4.553-2.948-6.982c-3.904-9.553-7.268-20.249-9.802-31.921c-2.533-11.667-4.19-24.334-4.523-37.754
		c-0.319-13.412,0.616-27.588,3.372-42.091c2.776-14.486,7.199-29.333,13.693-43.9c6.427-14.594,15.073-28.796,25.573-42.107
		c1.26-1.707,2.677-3.294,4.059-4.921c1.392-1.617,2.767-3.26,4.188-4.87c1.477-1.56,2.958-3.125,4.445-4.695l2.233-2.357
		c0.036-0.039,0.265-0.28,0.348-0.354l0.291-0.274l0.58-0.55l1.163-1.102c1.551-1.469,3.106-2.942,4.667-4.42
		c1.587-1.469,3.334-2.888,5.001-4.339c3.326-2.974,6.887-5.579,10.403-8.316c7.197-5.23,14.688-10.262,22.721-14.517
		c3.932-2.28,8.102-4.15,12.204-6.187c2.087-0.945,4.212-1.817,6.324-2.732l3.177-1.355l3.245-1.205
		c17.288-6.535,35.788-10.621,54.691-12.137c2.365-0.147,4.735-0.295,7.108-0.443c2.373-0.115,4.756-0.092,7.139-0.145
		c1.191-0.011,2.383-0.046,3.575-0.039l3.579,0.118l3.584,0.12c1.194,0.037,2.391,0.068,3.583,0.187
		c2.386,0.194,4.774,0.388,7.166,0.583c2.389,0.215,4.765,0.59,7.149,0.878l3.576,0.475l3.556,0.634l3.558,0.636
		c1.187,0.208,2.374,0.413,3.545,0.704c2.354,0.538,4.707,1.076,7.062,1.615c2.35,0.565,4.663,1.279,6.999,1.913
		c1.163,0.333,2.334,0.638,3.491,0.995l3.447,1.148l3.449,1.149c1.152,0.375,2.303,0.762,3.427,1.222
		c9.127,3.308,17.966,7.422,26.563,11.996l6.365,3.598c2.109,1.219,4.134,2.585,6.205,3.869l3.095,1.951l3,2.099
		c1.983,1.419,4.03,2.754,5.965,4.246l5.781,4.498c0.978,0.732,1.907,1.525,2.824,2.33l2.776,2.393l2.773,2.394
		c0.935,0.788,1.78,1.671,2.677,2.502l5.327,5.091c6.734,6.883,13.313,14.297,19.135,22.112c1.488,1.934,2.822,3.981,4.241,5.966
		l2.097,3l1.947,3.096c1.284,2.073,2.646,4.097,3.866,6.208l3.591,6.365c4.568,8.599,8.675,17.439,11.976,26.566
		c0.459,1.124,0.845,2.273,1.218,3.426l1.146,3.449l1.146,3.448c0.354,1.157,0.659,2.328,0.99,3.491
		c0.632,2.334,1.345,4.648,1.907,6.996c0.538,2.355,1.073,4.708,1.609,7.06c0.289,1.172,0.496,2.359,0.702,3.546l0.632,3.557
		l0.631,3.554l0.474,3.574c0.285,2.385,0.658,4.759,0.871,7.147c0.193,2.391,0.386,4.778,0.577,7.163
		c0.119,1.192,0.148,2.387,0.184,3.582l0.116,3.581l0.117,3.578c0.006,1.192-0.029,2.383-0.042,3.575
		c-0.052,2.38-0.031,4.761-0.147,7.134c-0.148,2.371-0.299,4.739-0.446,7.104c-1.527,18.89-5.621,37.375-12.159,54.646l-1.207,3.243
		l-1.354,3.174c-0.915,2.109-1.786,4.232-2.732,6.317c-2.036,4.099-3.906,8.265-6.187,12.192c-4.251,8.025-9.28,15.51-14.508,22.7
		c-2.732,3.51-5.351,7.084-8.284,10.364c-1.442,1.659-2.824,3.366-4.309,4.97c-1.505,1.588-3.003,3.17-4.498,4.749l-1.121,1.182
		l-0.559,0.59l-0.279,0.296c-0.079,0.088-0.313,0.302-0.352,0.341l-2.316,2.193c-1.542,1.46-3.078,2.915-4.61,4.366
		c-1.608,1.422-3.271,2.817-4.899,4.218c-1.637,1.393-3.243,2.826-4.941,4.08c-13.302,10.49-27.489,19.135-42.068,25.562
		c-14.556,6.491-29.387,10.924-43.862,13.705c-14.493,2.764-28.659,3.704-42.064,3.395c-13.413-0.323-26.075-1.972-37.741-4.494
		c-11.668-2.525-22.362-5.881-31.917-9.775c-2.429-0.872-4.713-1.961-6.982-2.942c-2.262-1.001-4.492-1.938-6.584-3.042
		c-2.114-1.059-4.178-2.093-6.191-3.102c-1.963-1.104-3.877-2.18-5.742-3.228c-14.862-8.497-25.429-16.932-32.28-22.985
		c-0.868-0.747-1.684-1.45-2.45-2.11c-0.769-0.654-1.422-1.335-2.063-1.928c-1.263-1.205-2.326-2.219-3.183-3.035
		c-1.711-1.633-2.595-2.476-2.595-2.476L59.253,340.755z M61.526,338.539c0,0,0.872,0.827,2.563,2.429
		c0.845,0.8,1.895,1.795,3.142,2.978c0.631,0.581,1.277,1.249,2.036,1.891c0.755,0.646,1.562,1.336,2.418,2.067
		c6.774,5.909,17.147,14.258,31.854,22.444c14.627,8.199,33.621,16.396,56.603,20.854c22.873,4.531,49.711,5.509,77.817-0.323
		c14.024-2.932,28.271-7.593,42.299-13.976c1.784-0.735,3.477-1.68,5.223-2.529c1.732-0.88,3.491-1.723,5.219-2.643
		c1.705-0.964,3.416-1.931,5.134-2.902l2.582-1.458c0.849-0.511,1.678-1.056,2.522-1.583c1.682-1.06,3.37-2.125,5.064-3.191
		c1.688-1.074,3.299-2.282,4.965-3.423l2.484-1.738l1.244-0.87l1.202-0.936c1.603-1.247,3.214-2.499,4.827-3.755
		c1.65-1.226,3.155-2.586,4.708-3.914c1.545-1.341,3.104-2.651,4.652-4.027c1.525-1.456,3.058-2.918,4.594-4.385l2.307-2.201
		c0.15-0.148,0.119-0.107,0.222-0.217l0.271-0.284l0.542-0.568l1.086-1.14c1.448-1.519,2.903-3.043,4.362-4.57
		c1.44-1.544,2.776-3.189,4.177-4.786c2.849-3.158,5.383-6.603,8.039-9.981c5.06-6.937,9.949-14.14,14.159-21.84
		c2.247-3.772,4.092-7.782,6.107-11.725c0.936-2.007,1.799-4.052,2.707-6.083l1.345-3.057l1.198-3.127
		c6.615-16.607,10.921-34.469,12.732-52.823c0.186-2.299,0.371-4.601,0.557-6.906c0.156-2.308,0.175-4.627,0.269-6.945
		c0.033-1.16,0.09-2.321,0.103-3.482l-0.053-3.489l-0.052-3.494c-0.015-1.166-0.021-2.333-0.117-3.497
		c-0.146-2.33-0.293-4.664-0.439-7c-0.164-2.334-0.492-4.658-0.729-6.993l-0.397-3.5l-0.557-3.483l-0.557-3.487
		c-0.182-1.164-0.36-2.33-0.623-3.479c-0.483-2.309-0.968-4.62-1.453-6.933c-0.509-2.308-1.167-4.583-1.744-6.88
		c-0.307-1.144-0.584-2.297-0.911-3.436l-1.063-3.396l-1.063-3.399c-0.346-1.137-0.702-2.271-1.134-3.379l-2.474-6.697
		c-0.861-2.22-1.855-4.388-2.776-6.588c-0.478-1.093-0.923-2.2-1.424-3.283l-1.571-3.218l-1.571-3.221
		c-0.517-1.078-1.04-2.152-1.639-3.188c-4.425-8.487-9.666-16.543-15.306-24.306c-5.734-7.736-12.012-14.869-18.804-21.864
		c-6.841-6.633-14.108-13.035-21.815-18.732c-7.764-5.634-15.824-10.871-24.313-15.288c-1.036-0.597-2.111-1.12-3.189-1.636
		l-3.222-1.568l-3.218-1.568c-1.082-0.5-2.19-0.946-3.283-1.421c-2.201-0.92-4.368-1.912-6.588-2.772l-6.699-2.467
		c-1.106-0.43-2.24-0.786-3.378-1.131l-3.399-1.061l-3.396-1.059c-1.138-0.327-2.29-0.603-3.435-0.907
		c-2.297-0.576-4.57-1.232-6.878-1.74c-2.313-0.482-4.625-0.964-6.932-1.446c-1.15-0.263-2.315-0.44-3.479-0.622l-3.487-0.553
		l-3.48-0.554l-3.5-0.395c-2.334-0.236-4.655-0.56-6.99-0.724c-2.334-0.145-4.666-0.289-6.995-0.433
		c-1.163-0.095-2.33-0.102-3.495-0.115l-3.492-0.049l-3.486-0.05c-1.161,0.015-2.322,0.072-3.48,0.105
		c-2.317,0.096-4.635,0.115-6.941,0.271c-2.304,0.188-4.605,0.375-6.902,0.562c-18.343,1.821-36.188,6.134-52.779,12.754
		l-3.124,1.198l-3.054,1.346c-2.029,0.906-4.073,1.771-6.078,2.705c-3.939,2.017-7.945,3.859-11.713,6.106
		c-7.692,4.209-14.889,9.095-21.818,14.154c-3.373,2.649-6.829,5.195-9.942,8.005c-1.587,1.394-3.194,2.693-4.756,4.149
		c-1.555,1.484-3.105,2.963-4.651,4.438l-1.159,1.105l-0.578,0.552l-0.289,0.276c-0.114,0.104-0.059,0.066-0.209,0.217l-2.163,2.266
		c-1.44,1.508-2.875,3.011-4.306,4.51c-1.376,1.547-2.706,3.126-4.057,4.681c-1.338,1.563-2.715,3.086-3.934,4.729
		c-1.256,1.614-2.506,3.222-3.752,4.824l-0.935,1.201l-0.87,1.245l-1.737,2.481c-1.139,1.663-2.346,3.272-3.419,4.96
		c-1.067,1.693-2.131,3.379-3.19,5.06c-0.528,0.842-1.072,1.671-1.583,2.518l-1.458,2.58c-0.972,1.716-1.938,3.426-2.901,5.128
		c-0.92,1.726-1.762,3.484-2.643,5.214c-0.849,1.745-1.793,3.437-2.528,5.217c-6.381,14.015-11.051,28.248-13.987,42.262
		c-5.844,28.083-4.887,54.908-0.376,77.777c4.438,22.976,12.62,41.972,20.807,56.603c8.166,14.7,16.534,25.105,22.403,31.846
		c0.729,0.853,1.416,1.656,2.059,2.409c0.637,0.756,1.317,1.414,1.9,2.05c1.19,1.258,2.192,2.316,3,3.169
		c1.613,1.704,2.446,2.584,2.446,2.584L61.526,338.539z"/>
</g>
</svg>
