<?xml version="1.0" encoding="utf-8"?>
<!-- Generator: Adobe Illustrator 16.0.0, SVG Export Plug-In . SVG Version: 6.00 Build 0)  -->
<!DOCTYPE svg PUBLIC "-//W3C//DTD SVG 1.1//EN" "http://www.w3.org/Graphics/SVG/1.1/DTD/svg11.dtd">
<svg version="1.1" id="Layer_1" xmlns="http://www.w3.org/2000/svg" xmlns:xlink="http://www.w3.org/1999/xlink" x="0px" y="0px"
	 width="200px" height="171.406px" viewBox="0 0 200 171.406" enable-background="new 0 0 200 171.406" xml:space="preserve">
<g>
	<g>
		<path fill="#FFFFFF" d="M150.459,171.406H49.542c-1.458,0-2.683-1.092-2.849-2.539l-7.182-62.443
			C17.615,105.785,0,87.774,0,65.731c0-22.452,18.263-40.715,40.712-40.715c4.56,0,9.017,0.748,13.28,2.224
			C63.559,10.372,80.961,0,100,0c19.621,0,37.281,10.858,46.68,28.512c4.092-1.345,8.321-2.022,12.608-2.022
			C181.736,26.49,200,44.753,200,67.202c0,22.103-17.708,40.148-39.682,40.7l-7.012,60.966
			C153.143,170.315,151.915,171.406,150.459,171.406z M52.099,165.673h95.803l7.021-61.03c0.168-1.492,1.486-2.671,2.96-2.537
			l0.687,0.039c0.238,0.019,0.477,0.034,0.72,0.034c19.288,0,34.978-15.692,34.978-34.978c0-19.284-15.688-34.978-34.978-34.978
			c-4.427,0-8.787,0.846-12.959,2.515c-1.397,0.558-3.002-0.066-3.653-1.434C134.588,16.3,118.236,5.734,100,5.734
			c-17.711,0-33.85,10.109-42.119,26.381c-0.68,1.34-2.275,1.931-3.665,1.348c-4.287-1.798-8.831-2.71-13.504-2.71
			c-19.286,0-34.977,15.69-34.977,34.979c0,19.285,15.691,34.976,34.977,34.976c0.203,0,0.402-0.019,0.601-0.028l0.651-0.039
			c1.477-0.084,2.774,1.053,2.947,2.539L52.099,165.673z"/>
	</g>
	<g>
		<rect x="47.26" y="145.833" fill="#FFFFFF" width="105.568" height="5.734"/>
	</g>
</g>
</svg>
