<?xml version="1.0" encoding="utf-8"?>
<!-- Generator: Adobe Illustrator 16.0.0, SVG Export Plug-In . SVG Version: 6.00 Build 0)  -->
<!DOCTYPE svg PUBLIC "-//W3C//DTD SVG 1.1//EN" "http://www.w3.org/Graphics/SVG/1.1/DTD/svg11.dtd">
<svg version="1.1" id="Layer_1" xmlns="http://www.w3.org/2000/svg" xmlns:xlink="http://www.w3.org/1999/xlink" x="0px" y="0px"
	 width="200px" height="181.414px" viewBox="0 0 200 181.414" enable-background="new 0 0 200 181.414" xml:space="preserve">
<g>
	<g>
		<path fill="#FFFFFF" d="M112.766,181.414H49.898c-0.589,0-1.166-0.184-1.646-0.523C18.938,160.209,0,113.795,0,62.649
			c0-0.682,0.014-1.353,0.028-2.025l0.019-1.126c0.023-1.563,1.295-2.818,2.857-2.818h156.858c1.561,0,2.831,1.252,2.857,2.812
			l0.018,0.878c0.014,0.755,0.027,1.515,0.027,2.279c0,51.146-18.938,97.56-48.253,118.242
			C113.932,181.23,113.354,181.414,112.766,181.414z M50.815,175.702h61.033c27.426-19.91,45.103-64.142,45.103-113.053
			c0-0.084,0-0.171,0-0.257H5.713c0,0.086,0,0.173,0,0.257C5.713,111.563,23.391,155.792,50.815,175.702z"/>
	</g>
	<g>
		<path fill="#FFFFFF" d="M154.557,139.75c-0.002,0-0.002,0-0.002,0c-3.537,0-6.756-0.85-9.564-2.527
			c-1.205-0.72-1.713-2.209-1.189-3.513c9.178-22.979,12.396-50.362,13.164-58.207c0.072-0.736,0.428-1.417,0.993-1.9
			c11.883-10.098,24.658-12.381,33.576-6.118c12.103,8.502,10.979,30.26-2.556,49.527C179.128,131.04,165.938,139.75,154.557,139.75
			z M150.078,133.322c1.374,0.475,2.873,0.714,4.477,0.714c0,0,0,0,0.002,0c9.406,0,21.082-7.968,29.746-20.304
			c11.305-16.096,13.11-35.133,3.945-41.571c-6.523-4.586-16.283-2.586-25.716,5.071C161.6,86.207,158.396,111.26,150.078,133.322z"
			/>
	</g>
	<g>
		<path fill="#FFFFFF" d="M141.875,62.392H18.585c-0.834,0-1.627-0.363-2.17-0.999c-0.542-0.633-0.781-1.473-0.653-2.299
			c0.059-0.374,6.382-37.777,48.791-40.025c11.354-0.204,41.714-3.693,46.994-17.249c0.303-0.778,0.93-1.384,1.717-1.659
			c0.783-0.277,1.656-0.195,2.377,0.223c0.334,0.195,33.221,19.733,29.076,59.449C144.564,61.287,143.337,62.392,141.875,62.392z
			 M22.222,56.679H139.25c1.809-28.521-16.957-44.688-23.954-49.683c-10.71,16.894-48.835,17.753-50.542,17.78
			C34.214,26.398,24.75,48.238,22.222,56.679z"/>
	</g>
</g>
</svg>
