<?xml version="1.0" encoding="utf-8"?>
<!-- Generator: Adobe Illustrator 16.0.0, SVG Export Plug-In . SVG Version: 6.00 Build 0)  -->
<!DOCTYPE svg PUBLIC "-//W3C//DTD SVG 1.1//EN" "http://www.w3.org/Graphics/SVG/1.1/DTD/svg11.dtd">
<svg version="1.1" id="Layer_1" xmlns="http://www.w3.org/2000/svg" xmlns:xlink="http://www.w3.org/1999/xlink" x="0px" y="0px"
	 width="200px" height="185.953px" viewBox="0 0 200 185.953" enable-background="new 0 0 200 185.953" xml:space="preserve">
<g>
	<g>
		<g>
			<path fill="#FFFFFF" d="M100.083,185.954c-28.5,0-53.827-4.009-71.32-11.283c-4.55-1.43-8.967-3.769-12.888-6.86
				c-8.705-6.863-14.217-17.039-15.123-27.914c-0.092-1.082-0.169-2.176-0.169-3.285c0-22.117,18.434-40.105,41.089-40.105
				c1.389,0.053,11.864,0.607,17.945,5.717c12.238-7.049,28.043-6.897,40.196,0.473c11.979-7.264,27.539-7.543,39.777-0.686
				c1.834-1.027,3.756-1.906,5.734-2.629c6.943-2.828,12.914-2.875,13.166-2.875c22.662,0,41.093,17.988,41.093,40.105
				c0,1.109-0.074,2.203-0.167,3.289c-0.904,10.871-6.417,21.043-15.117,27.908c-3.922,3.092-8.341,5.43-13.134,6.944
				C153.912,181.945,128.584,185.954,100.083,185.954z M41.56,102.193c-19.405,0.002-35.285,15.439-35.285,34.416
				c0,0.949,0.071,1.884,0.149,2.813c0.775,9.312,5.504,18.027,12.975,23.921c3.381,2.663,7.188,4.68,11.317,5.983
				c17.05,7.082,41.602,10.935,69.367,10.935c27.769,0,52.321-3.853,69.133-10.851c4.369-1.39,8.177-3.406,11.558-6.072
				c7.469-5.889,12.197-14.606,12.973-23.916c0.078-0.93,0.146-1.862,0.146-2.813c0-18.977-15.877-34.414-35.396-34.414
				c-0.038,0-5.161,0.064-11.125,2.494c-2.257,0.824-4.338,1.834-6.287,3.039c-0.917,0.566-2.079,0.566-2.997,0
				c-10.934-6.768-25.288-6.629-36.07,0.297c-0.455,0.291-0.983,0.449-1.524,0.453l-1.323,0.006
				c-0.495,0.099-1.088-0.155-1.551-0.453c-11.075-7.114-25.878-7.028-36.842,0.16c-1.178,0.771-2.9,0.506-3.792-0.586
				C53.669,103.546,44.726,102.32,41.56,102.193z"/>
		</g>
		<g>
			<path fill="#FFFFFF" d="M44.958,140.163c-1.571,0-2.846-1.271-2.846-2.847c0-23.25,14.861-33.45,15.494-33.873
				c1.302-0.875,3.075-0.524,3.948,0.783c0.872,1.303,0.523,3.068-0.777,3.941c-0.55,0.379-12.973,9.076-12.973,29.148
				C47.805,138.893,46.531,140.163,44.958,140.163z"/>
		</g>
		<g>
			<path fill="#FFFFFF" d="M84.922,140.163c-1.571,0-2.845-1.271-2.845-2.847c0-23.641,16.242-33.707,16.934-34.125
				c1.342-0.809,3.092-0.377,3.906,0.972c0.812,1.344,0.381,3.088-0.959,3.899c-0.585,0.361-14.189,8.938-14.189,29.254
				C87.768,138.893,86.494,140.163,84.922,140.163z"/>
		</g>
		<g>
			<path fill="#FFFFFF" d="M123.955,140.163c-1.57,0-2.846-1.271-2.846-2.847c0-21.631,16.102-33.789,16.783-34.295
				c1.264-0.938,3.047-0.668,3.983,0.595c0.931,1.262,0.668,3.041-0.593,3.978l0,0c-0.145,0.108-14.481,11.03-14.481,29.725
				C126.803,138.893,125.525,140.163,123.955,140.163z"/>
		</g>
	</g>
	<g>
		<g>
			<path fill="#FFFFFF" d="M95.664,72.418c-1.571,0-2.846-1.274-2.846-2.845c0-7.508-2.266-11.049-4.89-15.148
				c-2.713-4.239-5.788-9.042-5.788-18.215s3.075-13.978,5.788-18.216c2.624-4.1,4.89-7.641,4.89-15.147
				C92.818,1.274,94.093,0,95.664,0c1.572,0,2.846,1.274,2.846,2.846c0,9.173-3.075,13.978-5.787,18.216
				c-2.624,4.1-4.891,7.639-4.891,15.147s2.267,11.048,4.891,15.146c2.712,4.239,5.787,9.042,5.787,18.217
				C98.51,71.145,97.236,72.418,95.664,72.418z"/>
		</g>
		<g>
			<path fill="#FFFFFF" d="M115.18,72.418c-1.57,0-2.846-1.274-2.846-2.845c0-7.508-2.266-11.049-4.891-15.148
				c-2.713-4.239-5.787-9.042-5.787-18.215s3.074-13.978,5.787-18.216c2.625-4.1,4.891-7.641,4.891-15.147
				c0-1.572,1.273-2.846,2.846-2.846c1.57,0,2.848,1.274,2.848,2.846c0,9.173-3.078,13.978-5.791,18.216
				c-2.623,4.1-4.889,7.639-4.889,15.147c0,7.508,2.266,11.048,4.889,15.146c2.713,4.239,5.791,9.042,5.791,18.217
				C118.025,71.145,116.749,72.418,115.18,72.418z"/>
		</g>
	</g>
</g>
</svg>
