<?xml version="1.0" encoding="utf-8"?>
<!-- Generator: Adobe Illustrator 16.0.0, SVG Export Plug-In . SVG Version: 6.00 Build 0)  -->
<!DOCTYPE svg PUBLIC "-//W3C//DTD SVG 1.1//EN" "http://www.w3.org/Graphics/SVG/1.1/DTD/svg11.dtd">
<svg version="1.1" id="Layer_1" xmlns="http://www.w3.org/2000/svg" xmlns:xlink="http://www.w3.org/1999/xlink" x="0px" y="0px"
	 width="200px" height="183.524px" viewBox="0 0 200 183.524" enable-background="new 0 0 200 183.524" xml:space="preserve">
<g>
	<g>
		<path fill="#231F20" d="M182.306,41.214H17.917c-1.581,0-2.862-1.281-2.862-2.862V2.861c0-1.58,1.281-2.861,2.862-2.861h164.389
			c1.581,0,2.86,1.281,2.86,2.861v35.491C185.166,39.933,183.887,41.214,182.306,41.214z M20.777,35.492h158.666V5.723H20.777
			V35.492z"/>
	</g>
	<g>
		<path fill="#231F20" d="M197.25,183.524H2.972c-1.58,0-2.861-1.279-2.861-2.861v-14.447c0-1.581,1.281-2.86,2.861-2.86H197.25
			c1.581,0,2.86,1.279,2.86,2.86v14.447C200.11,182.245,198.831,183.524,197.25,183.524z M5.833,177.803h188.554v-8.725H5.833
			V177.803z"/>
	</g>
	<g>
		<path fill="#231F20" d="M189.833,76.087c-0.017,0-0.036-0.001-0.056,0H10.444c-0.863,0-1.682-0.39-2.226-1.062
			c-0.542-0.672-0.753-1.554-0.573-2.399l7.472-34.872c0.284-1.319,1.449-2.262,2.799-2.262h164.389c1.35,0,2.515,0.943,2.8,2.262
			l7.354,34.33c0.151,0.35,0.234,0.735,0.234,1.142C192.694,74.805,191.415,76.087,189.833,76.087z M13.983,70.364h172.256
			l-6.248-29.149H20.23L13.983,70.364z"/>
	</g>
	<g>
		<path fill="#231F20" d="M32.861,98.503c-13.938,0-25.278-11.341-25.278-25.278c0-1.58,1.281-2.861,2.861-2.861
			c1.581,0,2.861,1.281,2.861,2.861c0,10.782,8.773,19.553,19.556,19.553c10.783,0,19.557-8.771,19.557-19.553
			c0-1.58,1.281-2.861,2.861-2.861c1.581,0,2.861,1.281,2.861,2.861C58.14,87.162,46.8,98.503,32.861,98.503z"/>
	</g>
	<g>
		<path fill="#231F20" d="M167.361,98.503c-13.938,0-25.278-11.341-25.278-25.278h5.723c0,10.782,8.774,19.553,19.556,19.553
			c10.783,0,19.554-8.771,19.554-19.553h5.724C192.639,87.162,181.299,98.503,167.361,98.503z"/>
	</g>
	<g>
		<path fill="#231F20" d="M122.527,98.503c-13.938,0-25.277-11.341-25.277-25.278c0-1.58,1.281-2.861,2.861-2.861
			s2.861,1.281,2.861,2.861c0,10.782,8.774,19.553,19.555,19.553c10.781,0,19.556-8.771,19.556-19.553
			c0-1.58,1.279-2.861,2.861-2.861s2.861,1.281,2.861,2.861C147.806,87.162,136.467,98.503,122.527,98.503z"/>
	</g>
	<g>
		<path fill="#231F20" d="M77.694,98.503c-13.937,0-25.276-11.341-25.276-25.278c0-1.58,1.281-2.861,2.861-2.861
			c1.581,0,2.861,1.281,2.861,2.861c0,10.782,8.772,19.553,19.554,19.553c10.783,0,19.556-8.771,19.556-19.553
			c0-1.58,1.281-2.861,2.861-2.861s2.861,1.281,2.861,2.861C102.973,87.162,91.633,98.503,77.694,98.503z"/>
	</g>
	<g>
		<rect x="15.055" y="89.908" fill="#231F20" width="5.723" height="76.308"/>
	</g>
	<g>
		<rect x="179.443" y="89.908" fill="#231F20" width="5.723" height="76.308"/>
	</g>
	<g>
		<path fill="#231F20" d="M75.359,169.078h-34.87c-1.581,0-2.861-1.279-2.861-2.862v-56.253c0-1.579,1.281-2.861,2.861-2.861h34.87
			c1.58,0,2.861,1.282,2.861,2.861v56.253C78.22,167.799,76.939,169.078,75.359,169.078z M43.351,163.355h29.146v-50.531H43.351
			V163.355z"/>
	</g>
	<g>
		<path fill="#231F20" d="M159.889,152.675h-59.777c-1.58,0-2.861-1.279-2.861-2.86v-39.852c0-1.579,1.281-2.861,2.861-2.861h59.777
			c1.579,0,2.861,1.282,2.861,2.861v39.852C162.75,151.396,161.468,152.675,159.889,152.675z M102.973,146.952h54.055v-34.128
			h-54.055V146.952z"/>
	</g>
</g>
</svg>
